<svg width="559.4" height="95.5" viewBox="0 0 559.4 95.5" xmlns="http://www.w3.org/2000/svg"><g id="svgGroup" stroke-linecap="round" fill-rule="evenodd" font-size="9pt" stroke="#ffc800" stroke-width="0.25mm" fill="#ffc800" style="stroke:#ffc800;stroke-width:0.25mm;fill:#ffc800"><path d="M 275.7 48.8 L 276.6 43.9 L 262 43.9 L 263.3 36.4 L 286.8 36.4 L 282.9 58.9 Q 282.8 59.4 282.75 60.05 A 17.363 17.363 0 0 0 282.701 61.215 A 19.322 19.322 0 0 0 282.7 61.4 A 7.413 7.413 0 0 0 282.83 62.836 Q 283.148 64.447 284.25 65.3 A 5.201 5.201 0 0 0 285.911 66.141 Q 286.635 66.366 287.504 66.45 A 11.39 11.39 0 0 0 288.6 66.5 L 285.3 74 A 16.346 16.346 0 0 1 281.014 73.488 Q 276.11 72.152 274.788 67.332 A 15.267 15.267 0 0 1 274.3 63.3 Q 271.2 68.1 266.3 71.4 Q 261.4 74.7 254.4 74.7 A 24.303 24.303 0 0 1 246.435 73.424 A 22.073 22.073 0 0 1 242.05 71.35 A 22.342 22.342 0 0 1 234.712 63.926 A 27.798 27.798 0 0 1 233.45 61.65 A 29.165 29.165 0 0 1 230.947 53.972 Q 230.32 50.597 230.301 46.749 A 48.879 48.879 0 0 1 230.3 46.5 Q 230.3 37 233 28.9 A 46.058 46.058 0 0 1 237.362 19.404 A 39.827 39.827 0 0 1 240.6 14.85 Q 245.5 8.9 252.25 5.6 A 32.873 32.873 0 0 1 265.344 2.34 A 38.72 38.72 0 0 1 267.1 2.3 A 39.809 39.809 0 0 1 272.77 2.685 A 28.994 28.994 0 0 1 278.4 4.05 A 42.145 42.145 0 0 1 286.884 8.166 A 39.192 39.192 0 0 1 287.4 8.5 L 282.4 16.1 A 40.139 40.139 0 0 0 277.433 13.139 A 34.405 34.405 0 0 0 275.15 12.1 Q 271.553 10.622 266.743 10.601 A 31.821 31.821 0 0 0 266.6 10.6 Q 259.1 10.6 253.1 15 A 28.042 28.042 0 0 0 245.898 22.869 A 35.911 35.911 0 0 0 243.6 27.2 A 39.137 39.137 0 0 0 240.678 37.309 A 51.791 51.791 0 0 0 240.1 45.2 A 32.1 32.1 0 0 0 240.733 51.758 Q 241.788 56.813 244.6 60.5 A 14.418 14.418 0 0 0 255.078 66.308 A 19.57 19.57 0 0 0 257 66.4 Q 261.6 66.4 265.5 64.1 A 20.325 20.325 0 0 0 271.758 58.294 A 23.605 23.605 0 0 0 272.1 57.8 Q 274.8 53.8 275.7 48.8 Z M 509.9 28.5 L 513.1 21.5 A 17.48 17.48 0 0 1 517.025 21.901 Q 522.404 23.145 523.315 28.258 A 12.803 12.803 0 0 1 523.5 30.5 L 523.5 32.6 A 27.169 27.169 0 0 1 529.069 25.353 A 25.461 25.461 0 0 1 531 23.75 A 17.258 17.258 0 0 1 541.273 20.305 A 21.296 21.296 0 0 1 541.7 20.3 A 17.842 17.842 0 0 1 546.878 21.026 A 15.113 15.113 0 0 1 551.1 23.05 A 17.228 17.228 0 0 1 556.533 29.186 A 21.069 21.069 0 0 1 557.25 30.65 Q 559.4 35.5 559.4 41.9 A 44.065 44.065 0 0 1 558.724 49.772 A 35.615 35.615 0 0 1 557.25 55.35 A 35.408 35.408 0 0 1 554.15 61.935 A 29.807 29.807 0 0 1 551.4 65.75 A 28.154 28.154 0 0 1 546.49 70.339 A 24.241 24.241 0 0 1 543.1 72.4 Q 538.5 74.7 533.6 74.7 Q 528.8 74.7 524.65 72.3 A 20.884 20.884 0 0 1 520.775 69.451 A 17 17 0 0 1 518.2 66.4 L 513.1 95.5 L 504.1 95.5 L 514.5 36 Q 514.697 34.885 514.765 34.027 A 10.568 10.568 0 0 0 514.8 33.2 Q 514.8 28.5 509.9 28.5 Z M 389.6 11.9 L 391.1 3.5 L 443.6 3.5 L 442.1 11.9 L 420.6 11.9 L 409.8 73.5 L 400.3 73.5 L 411.1 11.9 L 389.6 11.9 Z M 194.9 25.2 L 191.3 32.8 A 34.942 34.942 0 0 0 186.372 29.98 A 40.241 40.241 0 0 0 184.85 29.3 Q 181.3 27.8 176.8 27.8 Q 172.1 27.8 169.5 29.4 A 6.585 6.585 0 0 0 168.129 30.498 A 4.393 4.393 0 0 0 166.9 33.6 Q 166.9 35.1 167.75 36.45 Q 168.558 37.733 170.63 39.152 A 21.678 21.678 0 0 0 170.85 39.3 A 37.727 37.727 0 0 0 172.437 40.296 Q 174.108 41.293 176.425 42.5 A 129.046 129.046 0 0 0 177.2 42.9 Q 181.716 45.158 184.688 47.526 A 21.949 21.949 0 0 1 187.3 49.95 A 12.688 12.688 0 0 1 190.58 58.082 A 16.428 16.428 0 0 1 190.6 58.9 A 16.507 16.507 0 0 1 190.12 62.981 A 12.32 12.32 0 0 1 187.8 67.7 A 16.238 16.238 0 0 1 182.265 72.101 A 20.306 20.306 0 0 1 180.3 72.95 A 27.468 27.468 0 0 1 174.126 74.433 A 35.442 35.442 0 0 1 169.7 74.7 Q 163.806 74.7 159.265 73.253 A 25.143 25.143 0 0 1 158.95 73.15 Q 154.3 71.6 150.9 69.1 L 156 61.7 A 23.108 23.108 0 0 0 159.974 64.286 A 28.626 28.626 0 0 0 162.4 65.4 A 20.657 20.657 0 0 0 168.608 66.828 A 24.55 24.55 0 0 0 170.5 66.9 A 21.387 21.387 0 0 0 173.555 66.696 Q 175.162 66.463 176.477 65.967 A 9.826 9.826 0 0 0 178.4 65 A 8.032 8.032 0 0 0 179.898 63.759 A 4.942 4.942 0 0 0 181.3 60.3 A 6.257 6.257 0 0 0 180.165 56.733 A 8.924 8.924 0 0 0 179.15 55.5 A 12.79 12.79 0 0 0 177.722 54.268 Q 176.13 53.065 173.553 51.642 A 76.771 76.771 0 0 0 170.8 50.2 Q 167.338 48.469 164.931 46.81 A 25.628 25.628 0 0 1 163 45.35 Q 160.352 43.128 159.224 40.592 A 10.055 10.055 0 0 1 159.1 40.3 A 14.579 14.579 0 0 1 158.189 36.862 A 19.408 19.408 0 0 1 158 34.1 Q 158 30.1 160.4 27 A 14.602 14.602 0 0 1 164.142 23.633 A 19.479 19.479 0 0 1 167.1 22.1 A 22.723 22.723 0 0 1 172.585 20.609 A 30.304 30.304 0 0 1 177 20.3 Q 182.6 20.3 187.05 21.75 A 44.882 44.882 0 0 1 191.482 23.446 A 34.688 34.688 0 0 1 194.9 25.2 Z M 0 73.5 L 12.3 3.5 L 21.8 3.5 L 11 65 L 43.1 65 L 41.6 73.5 L 0 73.5 Z M 101.3 31.2 L 102.6 23.4 L 111.8 23.4 L 116.6 7 L 123.5 7 L 120.6 23.4 L 135 23.4 L 133.7 31.2 L 119.2 31.2 L 115 55.5 A 30.76 30.76 0 0 0 114.807 56.69 A 24.277 24.277 0 0 0 114.7 57.55 Q 114.6 58.5 114.6 59.3 A 9.395 9.395 0 0 0 114.848 61.523 A 6.336 6.336 0 0 0 116.7 64.75 A 7.161 7.161 0 0 0 120.367 66.542 A 10.148 10.148 0 0 0 122.2 66.7 A 16.497 16.497 0 0 0 124.328 66.571 Q 125.444 66.425 126.388 66.117 A 8.853 8.853 0 0 0 127.1 65.85 Q 129.1 65 130.7 64.1 L 131.8 71.9 Q 130.205 72.824 127.94 73.571 A 32.324 32.324 0 0 1 127.05 73.85 Q 124.2 74.7 120.7 74.7 Q 117 74.7 113.55 73.2 Q 110.1 71.7 107.9 68.45 Q 105.971 65.6 105.733 61.25 A 22.945 22.945 0 0 1 105.7 60 Q 105.7 57.8 106.1 55.1 L 110.2 31.2 L 101.3 31.2 Z M 88.4 62.8 L 89.2 70.8 A 33.903 33.903 0 0 1 86.725 71.829 Q 85.354 72.341 83.751 72.831 A 71.576 71.576 0 0 1 81.6 73.45 A 35.228 35.228 0 0 1 75.785 74.494 A 45.074 45.074 0 0 1 71.4 74.7 A 25.965 25.965 0 0 1 65.006 73.943 A 21.265 21.265 0 0 1 59.75 71.85 Q 54.7 69 51.85 63.65 A 23.699 23.699 0 0 1 49.47 56.61 A 32.01 32.01 0 0 1 49 51 A 34.813 34.813 0 0 1 51.095 38.853 A 32.849 32.849 0 0 1 52.45 35.7 Q 55.9 28.7 62.25 24.5 A 25.315 25.315 0 0 1 73.736 20.474 A 31.965 31.965 0 0 1 77.1 20.3 A 25.579 25.579 0 0 1 81.524 20.663 Q 84.168 21.128 86.339 22.186 A 15.541 15.541 0 0 1 86.95 22.5 A 17.909 17.909 0 0 1 90.874 25.341 A 15.245 15.245 0 0 1 93.2 28.2 Q 95.4 31.7 95.4 35.7 A 19.183 19.183 0 0 1 95.003 39.707 Q 94.384 42.607 92.8 44.8 Q 90.2 48.4 86.1 50.35 Q 82 52.3 77.25 53.1 A 57.86 57.86 0 0 1 71.209 53.806 A 48.844 48.844 0 0 1 68.2 53.9 Q 65.5 53.9 62.85 53.65 A 108.588 108.588 0 0 1 60.656 53.422 Q 59.658 53.307 58.775 53.184 A 59.872 59.872 0 0 1 58.2 53.1 Q 58.904 58.906 62.007 62.313 A 12.499 12.499 0 0 0 62.9 63.2 A 13.486 13.486 0 0 0 69.901 66.468 A 18.622 18.622 0 0 0 72.9 66.7 A 32.871 32.871 0 0 0 77.486 66.395 A 24.388 24.388 0 0 0 81.8 65.4 Q 84.786 64.405 87.068 63.41 A 39.073 39.073 0 0 0 88.4 62.8 Z M 442.5 73.5 L 449.1 36.1 Q 449.2 35.6 449.25 34.95 A 17.363 17.363 0 0 0 449.299 33.785 A 19.322 19.322 0 0 0 449.3 33.6 A 7.658 7.658 0 0 0 449.174 32.16 Q 448.852 30.478 447.7 29.65 A 5.761 5.761 0 0 0 445.784 28.77 Q 444.759 28.5 443.5 28.5 L 446.6 21.5 A 17.686 17.686 0 0 1 449.744 21.762 Q 452.813 22.317 454.75 24.05 Q 457.383 26.406 457.583 30.853 A 16.592 16.592 0 0 1 457.6 31.6 L 457.6 33.6 A 31.489 31.489 0 0 1 459.789 29.192 Q 461.14 26.961 462.741 25.337 A 15.524 15.524 0 0 1 465.05 23.4 Q 469.6 20.3 475.4 20.3 A 25.342 25.342 0 0 1 477.161 20.358 Q 477.993 20.416 478.715 20.532 A 13.077 13.077 0 0 1 479.35 20.65 A 18.344 18.344 0 0 1 480.51 20.934 Q 481.413 21.188 482.1 21.5 L 478.1 30.3 Q 476.9 29.8 475.6 29.6 A 16.005 16.005 0 0 0 474.386 29.464 Q 473.764 29.416 473.07 29.404 A 27.49 27.49 0 0 0 472.6 29.4 A 10.923 10.923 0 0 0 468.064 30.421 A 15.299 15.299 0 0 0 465.45 31.95 A 15.108 15.108 0 0 0 462.732 34.514 Q 460.764 36.851 459.05 40.4 A 39.337 39.337 0 0 0 457.215 44.976 Q 456.398 47.409 455.694 50.315 A 99.74 99.74 0 0 0 454.4 56.6 L 451.5 73.5 L 442.5 73.5 Z M 313.304 74.084 A 30.696 30.696 0 0 0 319.6 74.7 A 33.622 33.622 0 0 0 323.873 74.436 A 26.204 26.204 0 0 0 334.75 70.6 Q 341.2 66.5 344.7 59.45 A 32.483 32.483 0 0 0 346.833 53.945 A 36.653 36.653 0 0 0 348.2 43.8 Q 348.2 36.9 345.25 31.6 Q 342.3 26.3 336.9 23.3 A 23.014 23.014 0 0 0 330.396 20.916 A 30.696 30.696 0 0 0 324.1 20.3 A 33.406 33.406 0 0 0 319.64 20.59 A 25.853 25.853 0 0 0 309 24.4 Q 302.6 28.5 299.05 35.5 A 31.665 31.665 0 0 0 296.743 41.498 A 36.693 36.693 0 0 0 295.5 51.2 A 29.325 29.325 0 0 0 295.641 54.106 A 23.813 23.813 0 0 0 298.45 63.35 Q 301.4 68.7 306.8 71.7 A 23.014 23.014 0 0 0 313.304 74.084 Z M 499.6 21.5 L 490.5 73.5 L 481.5 73.5 L 490.6 21.5 L 499.6 21.5 Z M 319.9 66.7 A 20.372 20.372 0 0 0 324.978 66.095 A 15.937 15.937 0 0 0 330.15 63.75 A 19.086 19.086 0 0 0 336.405 56.417 A 22.65 22.65 0 0 0 336.7 55.8 A 25.217 25.217 0 0 0 338.838 47.809 A 31.049 31.049 0 0 0 339 44.6 Q 339 40 337.2 36.35 Q 335.4 32.7 332 30.5 A 13.5 13.5 0 0 0 326.935 28.56 A 18.161 18.161 0 0 0 323.8 28.3 A 19.814 19.814 0 0 0 318.46 28.992 A 16.233 16.233 0 0 0 313.6 31.25 A 19.058 19.058 0 0 0 307.072 39.045 A 22.557 22.557 0 0 0 307 39.2 A 25.217 25.217 0 0 0 304.862 47.191 A 31.049 31.049 0 0 0 304.7 50.4 Q 304.7 54.9 306.5 58.6 Q 308.3 62.3 311.7 64.5 A 13.5 13.5 0 0 0 316.765 66.44 A 18.161 18.161 0 0 0 319.9 66.7 Z M 521.4 48.2 L 519.6 58.3 A 17.796 17.796 0 0 0 522.578 62.324 A 15.435 15.435 0 0 0 525.3 64.5 Q 528.8 66.7 532.8 66.7 A 13.766 13.766 0 0 0 541.14 63.884 A 17.087 17.087 0 0 0 541.45 63.65 A 19.414 19.414 0 0 0 545.782 58.92 A 25.673 25.673 0 0 0 547.8 55.2 A 27.444 27.444 0 0 0 549.848 47.925 A 35.988 35.988 0 0 0 550.2 42.8 A 24.121 24.121 0 0 0 549.835 38.468 Q 549.398 36.078 548.439 34.169 A 12.527 12.527 0 0 0 547.1 32.05 Q 544.051 28.166 539.165 28.101 A 12.538 12.538 0 0 0 539 28.1 A 12.931 12.931 0 0 0 532.615 29.815 A 16.264 16.264 0 0 0 531.35 30.6 A 19.279 19.279 0 0 0 527.104 34.624 A 25.093 25.093 0 0 0 525.1 37.6 A 29.229 29.229 0 0 0 522.568 43.423 A 38.418 38.418 0 0 0 521.4 48.2 Z M 76.4 27.9 A 16.106 16.106 0 0 0 69.731 29.278 A 15.677 15.677 0 0 0 67.9 30.25 Q 64.1 32.6 61.65 36.65 A 24.072 24.072 0 0 0 58.866 43.526 A 28.963 28.963 0 0 0 58.4 45.9 Q 60.7 46.3 63.05 46.55 A 43.727 43.727 0 0 0 65.836 46.752 A 56.357 56.357 0 0 0 68.2 46.8 Q 73.712 46.8 77.718 45.788 A 20.157 20.157 0 0 0 81.5 44.45 A 8.906 8.906 0 0 0 84.462 42.245 Q 86.4 39.985 86.4 36.4 A 7.756 7.756 0 0 0 83.943 30.677 A 10.356 10.356 0 0 0 83.65 30.4 A 9.377 9.377 0 0 0 79.165 28.169 A 13.507 13.507 0 0 0 76.4 27.9 Z M 146.5 3.5 L 155.2 3.5 L 150.5 25.7 L 143.4 25.7 L 146.5 3.5 Z M 497.2 12.6 Q 494.4 12.6 492.95 10.95 Q 491.5 9.3 491.5 7.1 A 8.315 8.315 0 0 1 491.805 4.791 A 6.358 6.358 0 0 1 493.5 1.95 A 6.799 6.799 0 0 1 498.123 0.008 A 8.947 8.947 0 0 1 498.5 0 Q 501.3 0 502.75 1.65 Q 504.2 3.3 504.2 5.5 A 7.853 7.853 0 0 1 503.818 8.001 A 6.583 6.583 0 0 1 502.2 10.6 A 6.747 6.747 0 0 1 497.392 12.598 A 8.857 8.857 0 0 1 497.2 12.6 Z" vector-effect="non-scaling-stroke"/></g></svg>